<mxfile host="app.diagrams.net" modified="2023-12-11T11:42:44.796Z" agent="Mozilla/5.0 (Macintosh; Intel Mac OS X 10_15_7) AppleWebKit/537.36 (KHTML, like Gecko) Chrome/119.0.0.0 Safari/537.36" etag="YmBisUjh_RdkOgUZzz8B" version="22.1.7" type="github">
  <diagram name="Page-1" id="jKb18ju2QpwEmjpjgpJ_">
    <mxGraphModel dx="2125" dy="2032" grid="1" gridSize="10" guides="1" tooltips="1" connect="1" arrows="1" fold="1" page="1" pageScale="1" pageWidth="1169" pageHeight="827" math="0" shadow="0">
      <root>
        <mxCell id="0" />
        <mxCell id="1" parent="0" />
        <mxCell id="rB3nnP-iTHuCGY8ewRmM-1" value="ServiceNow (target)" style="swimlane;" vertex="1" parent="1">
          <mxGeometry x="300" y="-370" width="950" height="780" as="geometry" />
        </mxCell>
        <mxCell id="rB3nnP-iTHuCGY8ewRmM-2" value="Scheduled Data Import&lt;br&gt;&amp;lt;scheduled_import_set&amp;gt;" style="html=1;outlineConnect=0;whiteSpace=wrap;fillColor=#d5e8d4;shape=mxgraph.archimate3.application;appType=comp;archiType=square;strokeColor=#82b366;verticalAlign=top;" vertex="1" parent="rB3nnP-iTHuCGY8ewRmM-1">
          <mxGeometry x="317.75" y="45" width="609" height="690" as="geometry" />
        </mxCell>
        <mxCell id="rB3nnP-iTHuCGY8ewRmM-3" value="Load and Transformation for data &quot;A&quot;" style="html=1;outlineConnect=0;whiteSpace=wrap;fillColor=#d5e8d4;shape=mxgraph.archimate3.application;appType=func;archiType=rounded;strokeColor=#82b366;verticalAlign=top;align=left;" vertex="1" parent="rB3nnP-iTHuCGY8ewRmM-1">
          <mxGeometry x="327.75" y="85" width="590" height="440" as="geometry" />
        </mxCell>
        <mxCell id="rB3nnP-iTHuCGY8ewRmM-5" value="Load Data &quot;A&quot;" style="html=1;outlineConnect=0;whiteSpace=wrap;fillColor=#d5e8d4;shape=mxgraph.archimate3.application;appType=proc;archiType=rounded;strokeColor=#82b366;verticalAlign=top;" vertex="1" parent="rB3nnP-iTHuCGY8ewRmM-1">
          <mxGeometry x="346.75" y="115" width="553.5" height="184" as="geometry" />
        </mxCell>
        <mxCell id="rB3nnP-iTHuCGY8ewRmM-6" value="Truncate Staging Data A" style="html=1;outlineConnect=0;whiteSpace=wrap;fillColor=#d5e8d4;shape=mxgraph.archimate3.application;appType=proc;archiType=rounded;strokeColor=#82b366;verticalAlign=middle;" vertex="1" parent="rB3nnP-iTHuCGY8ewRmM-1">
          <mxGeometry x="376.75" y="152.13" width="150" height="55" as="geometry" />
        </mxCell>
        <mxCell id="rB3nnP-iTHuCGY8ewRmM-7" value="Get Data A" style="html=1;outlineConnect=0;whiteSpace=wrap;fillColor=#d5e8d4;shape=mxgraph.archimate3.application;appType=proc;archiType=rounded;strokeColor=#82b366;verticalAlign=top;" vertex="1" parent="rB3nnP-iTHuCGY8ewRmM-1">
          <mxGeometry x="698" y="135.88" width="150" height="87.5" as="geometry" />
        </mxCell>
        <mxCell id="rB3nnP-iTHuCGY8ewRmM-8" value="Data Source &lt;br&gt;&amp;lt;sys_data_source&amp;gt;" style="html=1;outlineConnect=0;whiteSpace=wrap;fillColor=#d5e8d4;shape=mxgraph.archimate3.application;appType=comp;archiType=square;strokeColor=#82b366;verticalAlign=middle;" vertex="1" parent="rB3nnP-iTHuCGY8ewRmM-1">
          <mxGeometry x="713.5" y="164.38" width="125" height="50" as="geometry" />
        </mxCell>
        <mxCell id="rB3nnP-iTHuCGY8ewRmM-11" value="" style="html=1;endArrow=block;dashed=1;elbow=vertical;endFill=1;dashPattern=6 4;rounded=0;fontSize=12;" edge="1" parent="rB3nnP-iTHuCGY8ewRmM-1" source="rB3nnP-iTHuCGY8ewRmM-6" target="rB3nnP-iTHuCGY8ewRmM-7">
          <mxGeometry width="160" relative="1" as="geometry">
            <mxPoint x="306.75" y="433.13" as="sourcePoint" />
            <mxPoint x="616.75" y="472.68574912891984" as="targetPoint" />
          </mxGeometry>
        </mxCell>
        <mxCell id="rB3nnP-iTHuCGY8ewRmM-12" value="&lt;b&gt;2&lt;/b&gt;" style="edgeLabel;html=1;align=center;verticalAlign=middle;resizable=0;points=[];fontSize=12;" vertex="1" connectable="0" parent="rB3nnP-iTHuCGY8ewRmM-11">
          <mxGeometry x="0.0913" y="1" relative="1" as="geometry">
            <mxPoint as="offset" />
          </mxGeometry>
        </mxCell>
        <mxCell id="rB3nnP-iTHuCGY8ewRmM-13" value="Transform Data &quot;A&quot;" style="html=1;outlineConnect=0;whiteSpace=wrap;fillColor=#d5e8d4;shape=mxgraph.archimate3.application;appType=proc;archiType=rounded;strokeColor=#82b366;verticalAlign=top;" vertex="1" parent="rB3nnP-iTHuCGY8ewRmM-1">
          <mxGeometry x="346.75" y="335" width="553.5" height="177" as="geometry" />
        </mxCell>
        <mxCell id="rB3nnP-iTHuCGY8ewRmM-14" value="Robust Import Set Transformer &amp;lt;sys_robust_import_set_transformer&amp;gt;" style="html=1;outlineConnect=0;whiteSpace=wrap;fillColor=#d5e8d4;shape=mxgraph.archimate3.application;appType=comp;archiType=square;strokeColor=#82b366;verticalAlign=top;" vertex="1" parent="rB3nnP-iTHuCGY8ewRmM-1">
          <mxGeometry x="540" y="365" width="340" height="134" as="geometry" />
        </mxCell>
        <mxCell id="rB3nnP-iTHuCGY8ewRmM-15" value="" style="html=1;endArrow=block;dashed=1;elbow=vertical;endFill=1;dashPattern=6 4;rounded=0;fontSize=12;" edge="1" parent="rB3nnP-iTHuCGY8ewRmM-1" source="rB3nnP-iTHuCGY8ewRmM-5" target="rB3nnP-iTHuCGY8ewRmM-13">
          <mxGeometry width="160" relative="1" as="geometry">
            <mxPoint x="889" y="220" as="sourcePoint" />
            <mxPoint x="1154" y="220" as="targetPoint" />
          </mxGeometry>
        </mxCell>
        <mxCell id="rB3nnP-iTHuCGY8ewRmM-16" value="&lt;b&gt;4&lt;/b&gt;" style="edgeLabel;html=1;align=center;verticalAlign=middle;resizable=0;points=[];fontSize=12;" vertex="1" connectable="0" parent="rB3nnP-iTHuCGY8ewRmM-15">
          <mxGeometry x="0.0913" y="1" relative="1" as="geometry">
            <mxPoint as="offset" />
          </mxGeometry>
        </mxCell>
        <mxCell id="rB3nnP-iTHuCGY8ewRmM-18" value="&amp;lt;Import Table A&amp;gt;" style="html=1;outlineConnect=0;whiteSpace=wrap;fillColor=#d5e8d4;shape=mxgraph.archimate3.businessObject;overflow=fill;strokeColor=#82b366;" vertex="1" parent="rB3nnP-iTHuCGY8ewRmM-1">
          <mxGeometry x="386.25" y="240" width="131" height="40" as="geometry" />
        </mxCell>
        <mxCell id="rB3nnP-iTHuCGY8ewRmM-19" value="" style="edgeStyle=orthogonalEdgeStyle;html=1;endArrow=open;elbow=vertical;endFill=0;dashed=1;dashPattern=1 4;rounded=0;fillColor=#00b9f2;" edge="1" parent="rB3nnP-iTHuCGY8ewRmM-1" source="rB3nnP-iTHuCGY8ewRmM-6" target="rB3nnP-iTHuCGY8ewRmM-18">
          <mxGeometry width="160" relative="1" as="geometry">
            <mxPoint x="494.75" y="1081.13" as="sourcePoint" />
            <mxPoint x="294.75" y="1040.13" as="targetPoint" />
            <Array as="points">
              <mxPoint x="506.75" y="265.13" />
            </Array>
          </mxGeometry>
        </mxCell>
        <mxCell id="rB3nnP-iTHuCGY8ewRmM-20" value="" style="edgeStyle=orthogonalEdgeStyle;html=1;endArrow=open;elbow=vertical;endFill=0;dashed=1;dashPattern=1 4;rounded=0;fillColor=#00b9f2;" edge="1" parent="rB3nnP-iTHuCGY8ewRmM-1" source="rB3nnP-iTHuCGY8ewRmM-7" target="rB3nnP-iTHuCGY8ewRmM-18">
          <mxGeometry width="160" relative="1" as="geometry">
            <mxPoint x="504.75" y="1091.13" as="sourcePoint" />
            <mxPoint x="304.75" y="1050.13" as="targetPoint" />
            <Array as="points">
              <mxPoint x="786.75" y="266.13" />
              <mxPoint x="698.75" y="266.13" />
              <mxPoint x="698.75" y="265.13" />
            </Array>
          </mxGeometry>
        </mxCell>
        <mxCell id="rB3nnP-iTHuCGY8ewRmM-21" value="" style="html=1;endArrow=open;elbow=vertical;endFill=0;dashed=1;dashPattern=1 4;rounded=0;fillColor=#00b9f2;edgeStyle=orthogonalEdgeStyle;" edge="1" parent="rB3nnP-iTHuCGY8ewRmM-1" source="rB3nnP-iTHuCGY8ewRmM-14" target="rB3nnP-iTHuCGY8ewRmM-18">
          <mxGeometry width="160" relative="1" as="geometry">
            <mxPoint x="797" y="233" as="sourcePoint" />
            <mxPoint x="527" y="275" as="targetPoint" />
            <Array as="points">
              <mxPoint x="452" y="380" />
            </Array>
          </mxGeometry>
        </mxCell>
        <mxCell id="rB3nnP-iTHuCGY8ewRmM-22" value="Load and Transformation for data &quot;B&quot;" style="html=1;outlineConnect=0;whiteSpace=wrap;fillColor=#d5e8d4;shape=mxgraph.archimate3.application;appType=func;archiType=rounded;strokeColor=#82b366;verticalAlign=top;align=left;" vertex="1" parent="rB3nnP-iTHuCGY8ewRmM-1">
          <mxGeometry x="328.5" y="565" width="590" height="50" as="geometry" />
        </mxCell>
        <mxCell id="rB3nnP-iTHuCGY8ewRmM-23" value="" style="edgeStyle=none;rounded=0;orthogonalLoop=1;jettySize=auto;html=1;fontSize=6;" edge="1" parent="rB3nnP-iTHuCGY8ewRmM-1" source="rB3nnP-iTHuCGY8ewRmM-3" target="rB3nnP-iTHuCGY8ewRmM-22">
          <mxGeometry relative="1" as="geometry">
            <mxPoint x="301.75" y="189" as="sourcePoint" />
            <mxPoint x="386.75" y="189" as="targetPoint" />
          </mxGeometry>
        </mxCell>
        <mxCell id="rB3nnP-iTHuCGY8ewRmM-24" value="&lt;font style=&quot;font-size: 12px;&quot;&gt;&lt;b&gt;5&lt;/b&gt;&lt;/font&gt;" style="edgeLabel;html=1;align=center;verticalAlign=middle;resizable=0;points=[];fontSize=6;" vertex="1" connectable="0" parent="rB3nnP-iTHuCGY8ewRmM-23">
          <mxGeometry x="0.4" y="-1" relative="1" as="geometry">
            <mxPoint x="-9" y="-1" as="offset" />
          </mxGeometry>
        </mxCell>
        <mxCell id="rB3nnP-iTHuCGY8ewRmM-25" value="SubFlow" style="html=1;outlineConnect=0;whiteSpace=wrap;fillColor=#d5e8d4;shape=mxgraph.archimate3.application;appType=comp;archiType=square;strokeColor=#82b366;verticalAlign=top;align=left;" vertex="1" parent="rB3nnP-iTHuCGY8ewRmM-1">
          <mxGeometry x="32" y="332" width="240" height="403" as="geometry" />
        </mxCell>
        <mxCell id="rB3nnP-iTHuCGY8ewRmM-26" value="DBS DS Inventory Data - &lt;br&gt;Cleanup Not Imported" style="html=1;outlineConnect=0;whiteSpace=wrap;fillColor=#d5e8d4;shape=mxgraph.archimate3.application;appType=func;archiType=rounded;strokeColor=#82b366;verticalAlign=top;align=left;" vertex="1" parent="rB3nnP-iTHuCGY8ewRmM-1">
          <mxGeometry x="52" y="357" width="200" height="349" as="geometry" />
        </mxCell>
        <mxCell id="rB3nnP-iTHuCGY8ewRmM-27" value="DB VIEW: &amp;lt;u_cmdb_ds_acat_software_import_view&amp;gt;" style="html=1;outlineConnect=0;whiteSpace=wrap;fillColor=#d5e8d4;shape=mxgraph.archimate3.businessObject;overflow=fill;strokeColor=#82b366;" vertex="1" parent="rB3nnP-iTHuCGY8ewRmM-1">
          <mxGeometry x="35" y="231" width="240" height="58" as="geometry" />
        </mxCell>
        <mxCell id="rB3nnP-iTHuCGY8ewRmM-29" value="" style="html=1;endArrow=open;elbow=vertical;endFill=0;dashed=1;dashPattern=1 4;rounded=0;fillColor=#00b9f2;" edge="1" parent="rB3nnP-iTHuCGY8ewRmM-1" source="rB3nnP-iTHuCGY8ewRmM-27" target="rB3nnP-iTHuCGY8ewRmM-18">
          <mxGeometry width="160" relative="1" as="geometry">
            <mxPoint x="123.84224598930496" y="200" as="sourcePoint" />
            <mxPoint x="177.12566844919775" y="247" as="targetPoint" />
          </mxGeometry>
        </mxCell>
        <mxCell id="rB3nnP-iTHuCGY8ewRmM-30" value="Left&lt;br&gt;Join" style="edgeLabel;html=1;align=center;verticalAlign=middle;resizable=0;points=[];" vertex="1" connectable="0" parent="rB3nnP-iTHuCGY8ewRmM-29">
          <mxGeometry x="-0.0833" y="2" relative="1" as="geometry">
            <mxPoint x="-27" as="offset" />
          </mxGeometry>
        </mxCell>
        <mxCell id="rB3nnP-iTHuCGY8ewRmM-33" value="Cleanup obsolete&lt;br style=&quot;border-color: var(--border-color);&quot;&gt;&lt;span style=&quot;&quot;&gt;ACAT inventory&lt;/span&gt;" style="html=1;outlineConnect=0;whiteSpace=wrap;fillColor=#d5e8d4;shape=mxgraph.archimate3.application;appType=proc;archiType=rounded;strokeColor=#82b366;verticalAlign=top;align=left;" vertex="1" parent="rB3nnP-iTHuCGY8ewRmM-1">
          <mxGeometry x="64" y="403" width="177" height="171" as="geometry" />
        </mxCell>
        <mxCell id="rB3nnP-iTHuCGY8ewRmM-34" value="Mark as Retired &lt;br&gt;in target table" style="html=1;outlineConnect=0;whiteSpace=wrap;fillColor=#d5e8d4;shape=mxgraph.archimate3.application;appType=proc;archiType=rounded;strokeColor=#82b366;" vertex="1" parent="rB3nnP-iTHuCGY8ewRmM-1">
          <mxGeometry x="82.25" y="515" width="140.5" height="46" as="geometry" />
        </mxCell>
        <mxCell id="rB3nnP-iTHuCGY8ewRmM-35" value="Identify missing data&lt;br&gt;&amp;nbsp;in staging table" style="html=1;outlineConnect=0;whiteSpace=wrap;fillColor=#d5e8d4;shape=mxgraph.archimate3.application;appType=proc;archiType=rounded;strokeColor=#82b366;" vertex="1" parent="rB3nnP-iTHuCGY8ewRmM-1">
          <mxGeometry x="82.25" y="443" width="140.5" height="46" as="geometry" />
        </mxCell>
        <mxCell id="rB3nnP-iTHuCGY8ewRmM-36" value="" style="html=1;endArrow=block;dashed=1;elbow=vertical;endFill=1;dashPattern=6 4;rounded=0;fontSize=12;" edge="1" parent="rB3nnP-iTHuCGY8ewRmM-1" source="rB3nnP-iTHuCGY8ewRmM-35" target="rB3nnP-iTHuCGY8ewRmM-34">
          <mxGeometry width="160" relative="1" as="geometry">
            <mxPoint x="-240.75" y="273" as="sourcePoint" />
            <mxPoint x="-240.75" y="319" as="targetPoint" />
          </mxGeometry>
        </mxCell>
        <mxCell id="rB3nnP-iTHuCGY8ewRmM-37" value="" style="html=1;endArrow=open;elbow=vertical;endFill=0;dashed=1;dashPattern=1 4;rounded=0;fillColor=#00b9f2;exitX=0.75;exitY=0;exitDx=0;exitDy=0;exitPerimeter=0;entryX=0.75;entryY=1;entryDx=0;entryDy=0;entryPerimeter=0;" edge="1" parent="rB3nnP-iTHuCGY8ewRmM-1" source="rB3nnP-iTHuCGY8ewRmM-35" target="rB3nnP-iTHuCGY8ewRmM-27">
          <mxGeometry width="160" relative="1" as="geometry">
            <mxPoint x="222.3744292237443" y="960" as="sourcePoint" />
            <mxPoint x="158" y="289" as="targetPoint" />
          </mxGeometry>
        </mxCell>
        <mxCell id="rB3nnP-iTHuCGY8ewRmM-38" value="Cleanup obsolete&lt;br style=&quot;border-color: var(--border-color); text-align: left;&quot;&gt;&lt;span style=&quot;text-align: left;&quot;&gt;SSTDB inventory&lt;/span&gt;&lt;br style=&quot;border-color: var(--border-color); text-align: left;&quot;&gt;&lt;br style=&quot;border-color: var(--border-color); text-align: left;&quot;&gt;&lt;span style=&quot;text-align: left;&quot;&gt;(ToBe implemented - pending)&lt;/span&gt;" style="html=1;outlineConnect=0;whiteSpace=wrap;fillColor=#d5e8d4;shape=mxgraph.archimate3.application;appType=proc;archiType=rounded;strokeColor=#82b366;verticalAlign=top;gradientColor=#FFFFCC;" vertex="1" parent="rB3nnP-iTHuCGY8ewRmM-1">
          <mxGeometry x="63.5" y="615" width="177" height="86" as="geometry" />
        </mxCell>
        <mxCell id="rB3nnP-iTHuCGY8ewRmM-39" value="" style="edgeStyle=none;rounded=0;orthogonalLoop=1;jettySize=auto;html=1;fontSize=6;" edge="1" parent="rB3nnP-iTHuCGY8ewRmM-1" source="rB3nnP-iTHuCGY8ewRmM-33" target="rB3nnP-iTHuCGY8ewRmM-38">
          <mxGeometry relative="1" as="geometry">
            <mxPoint x="225" y="1090" as="sourcePoint" />
            <mxPoint x="225" y="1120" as="targetPoint" />
          </mxGeometry>
        </mxCell>
        <mxCell id="rB3nnP-iTHuCGY8ewRmM-40" value="&lt;font style=&quot;font-size: 12px;&quot;&gt;&lt;b&gt;10&lt;/b&gt;&lt;/font&gt;" style="edgeLabel;html=1;align=center;verticalAlign=middle;resizable=0;points=[];fontSize=6;" vertex="1" connectable="0" parent="rB3nnP-iTHuCGY8ewRmM-39">
          <mxGeometry x="0.4" y="-1" relative="1" as="geometry">
            <mxPoint x="-9" y="-1" as="offset" />
          </mxGeometry>
        </mxCell>
        <mxCell id="rB3nnP-iTHuCGY8ewRmM-41" value="Source" style="swimlane;" vertex="1" parent="1">
          <mxGeometry x="1270" y="-370" width="168.5" height="780" as="geometry" />
        </mxCell>
        <mxCell id="rB3nnP-iTHuCGY8ewRmM-42" value="Oracle DB" style="html=1;outlineConnect=0;whiteSpace=wrap;fillColor=#dae8fc;shape=mxgraph.archimate3.application;appType=comp;archiType=square;strokeColor=#6c8ebf;verticalAlign=top;" vertex="1" parent="rB3nnP-iTHuCGY8ewRmM-41">
          <mxGeometry x="20" y="40" width="130" height="690" as="geometry" />
        </mxCell>
        <mxCell id="rB3nnP-iTHuCGY8ewRmM-43" value="DB VIEW A" style="html=1;outlineConnect=0;whiteSpace=wrap;fillColor=#dae8fc;shape=mxgraph.archimate3.application;appType=comp;archiType=square;strokeColor=#6c8ebf;verticalAlign=middle;" vertex="1" parent="rB3nnP-iTHuCGY8ewRmM-41">
          <mxGeometry x="34.25" y="152.63" width="100" height="50" as="geometry" />
        </mxCell>
        <mxCell id="rB3nnP-iTHuCGY8ewRmM-44" value="DB VIEW B" style="html=1;outlineConnect=0;whiteSpace=wrap;fillColor=#dae8fc;shape=mxgraph.archimate3.application;appType=comp;archiType=square;strokeColor=#6c8ebf;verticalAlign=middle;" vertex="1" parent="rB3nnP-iTHuCGY8ewRmM-41">
          <mxGeometry x="34.25" y="565" width="100" height="50" as="geometry" />
        </mxCell>
        <mxCell id="rB3nnP-iTHuCGY8ewRmM-45" value="DB VIEW Z" style="html=1;outlineConnect=0;whiteSpace=wrap;fillColor=#dae8fc;shape=mxgraph.archimate3.application;appType=comp;archiType=square;strokeColor=#6c8ebf;verticalAlign=middle;" vertex="1" parent="rB3nnP-iTHuCGY8ewRmM-41">
          <mxGeometry x="34.25" y="655" width="100" height="50" as="geometry" />
        </mxCell>
        <mxCell id="rB3nnP-iTHuCGY8ewRmM-46" value="" style="html=1;endArrow=block;dashed=1;elbow=vertical;endFill=1;dashPattern=6 4;rounded=0;fontSize=12;" edge="1" parent="1" source="rB3nnP-iTHuCGY8ewRmM-7" target="rB3nnP-iTHuCGY8ewRmM-43">
          <mxGeometry width="160" relative="1" as="geometry">
            <mxPoint x="1201.25" y="340" as="sourcePoint" />
            <mxPoint x="1271.25" y="270" as="targetPoint" />
          </mxGeometry>
        </mxCell>
        <mxCell id="rB3nnP-iTHuCGY8ewRmM-47" value="&lt;b&gt;3&lt;/b&gt;" style="edgeLabel;html=1;align=center;verticalAlign=middle;resizable=0;points=[];fontSize=12;" vertex="1" connectable="0" parent="rB3nnP-iTHuCGY8ewRmM-46">
          <mxGeometry x="0.0913" y="1" relative="1" as="geometry">
            <mxPoint as="offset" />
          </mxGeometry>
        </mxCell>
        <mxCell id="rB3nnP-iTHuCGY8ewRmM-48" value="Load and Transformation for data &quot;Z&quot;" style="html=1;outlineConnect=0;whiteSpace=wrap;fillColor=#d5e8d4;shape=mxgraph.archimate3.application;appType=func;archiType=rounded;strokeColor=#82b366;verticalAlign=top;align=left;" vertex="1" parent="1">
          <mxGeometry x="628.5" y="285" width="590" height="50" as="geometry" />
        </mxCell>
        <mxCell id="rB3nnP-iTHuCGY8ewRmM-49" value="" style="edgeStyle=none;rounded=0;orthogonalLoop=1;jettySize=auto;html=1;fontSize=6;" edge="1" parent="1" source="rB3nnP-iTHuCGY8ewRmM-22" target="rB3nnP-iTHuCGY8ewRmM-48">
          <mxGeometry relative="1" as="geometry">
            <mxPoint x="611.75" y="-171" as="sourcePoint" />
            <mxPoint x="923.5" y="285" as="targetPoint" />
          </mxGeometry>
        </mxCell>
        <mxCell id="rB3nnP-iTHuCGY8ewRmM-50" value="&lt;font style=&quot;font-size: 12px;&quot;&gt;&lt;b&gt;7&lt;/b&gt;&lt;/font&gt;" style="edgeLabel;html=1;align=center;verticalAlign=middle;resizable=0;points=[];fontSize=6;" vertex="1" connectable="0" parent="rB3nnP-iTHuCGY8ewRmM-49">
          <mxGeometry x="0.4" y="-1" relative="1" as="geometry">
            <mxPoint x="-9" y="-1" as="offset" />
          </mxGeometry>
        </mxCell>
        <mxCell id="rB3nnP-iTHuCGY8ewRmM-51" value="" style="html=1;endArrow=block;dashed=1;elbow=vertical;endFill=1;dashPattern=6 4;rounded=0;fontSize=12;" edge="1" parent="1" source="rB3nnP-iTHuCGY8ewRmM-22" target="rB3nnP-iTHuCGY8ewRmM-44">
          <mxGeometry width="160" relative="1" as="geometry">
            <mxPoint x="1158" y="-181" as="sourcePoint" />
            <mxPoint x="1314" y="-182" as="targetPoint" />
          </mxGeometry>
        </mxCell>
        <mxCell id="rB3nnP-iTHuCGY8ewRmM-52" value="&lt;b&gt;6&lt;/b&gt;" style="edgeLabel;html=1;align=center;verticalAlign=middle;resizable=0;points=[];fontSize=12;" vertex="1" connectable="0" parent="rB3nnP-iTHuCGY8ewRmM-51">
          <mxGeometry x="0.0913" y="1" relative="1" as="geometry">
            <mxPoint as="offset" />
          </mxGeometry>
        </mxCell>
        <mxCell id="rB3nnP-iTHuCGY8ewRmM-53" value="" style="html=1;endArrow=block;dashed=1;elbow=vertical;endFill=1;dashPattern=6 4;rounded=0;fontSize=12;" edge="1" parent="1" source="rB3nnP-iTHuCGY8ewRmM-48" target="rB3nnP-iTHuCGY8ewRmM-45">
          <mxGeometry width="160" relative="1" as="geometry">
            <mxPoint x="1168" y="-171" as="sourcePoint" />
            <mxPoint x="1324" y="-172" as="targetPoint" />
          </mxGeometry>
        </mxCell>
        <mxCell id="rB3nnP-iTHuCGY8ewRmM-54" value="&lt;b&gt;8&lt;/b&gt;" style="edgeLabel;html=1;align=center;verticalAlign=middle;resizable=0;points=[];fontSize=12;" vertex="1" connectable="0" parent="rB3nnP-iTHuCGY8ewRmM-53">
          <mxGeometry x="0.0913" y="1" relative="1" as="geometry">
            <mxPoint as="offset" />
          </mxGeometry>
        </mxCell>
        <mxCell id="rB3nnP-iTHuCGY8ewRmM-55" value="" style="edgeStyle=orthogonalEdgeStyle;rounded=0;orthogonalLoop=1;jettySize=auto;html=1;fontSize=6;" edge="1" parent="1" source="rB3nnP-iTHuCGY8ewRmM-48" target="rB3nnP-iTHuCGY8ewRmM-26">
          <mxGeometry relative="1" as="geometry">
            <mxPoint x="934" y="255" as="sourcePoint" />
            <mxPoint x="934" y="295" as="targetPoint" />
            <Array as="points">
              <mxPoint x="600" y="310" />
              <mxPoint x="600" y="150" />
            </Array>
          </mxGeometry>
        </mxCell>
        <mxCell id="rB3nnP-iTHuCGY8ewRmM-56" value="&lt;font style=&quot;font-size: 12px;&quot;&gt;&lt;b&gt;9&lt;/b&gt;&lt;/font&gt;" style="edgeLabel;html=1;align=center;verticalAlign=middle;resizable=0;points=[];fontSize=6;" vertex="1" connectable="0" parent="rB3nnP-iTHuCGY8ewRmM-55">
          <mxGeometry x="0.4" y="-1" relative="1" as="geometry">
            <mxPoint x="-9" y="-1" as="offset" />
          </mxGeometry>
        </mxCell>
        <mxCell id="rB3nnP-iTHuCGY8ewRmM-4" value="BR: &quot;DBS DS PM Product Version went live&quot;&lt;br&gt;Version type changes to &quot;&lt;b&gt;live&lt;/b&gt;&quot;" style="html=1;outlineConnect=0;whiteSpace=wrap;fillColor=#d5e8d4;shape=mxgraph.archimate3.event;strokeColor=#82b366;" vertex="1" parent="1">
          <mxGeometry x="80" y="-770" width="260" height="57" as="geometry" />
        </mxCell>
        <mxCell id="rB3nnP-iTHuCGY8ewRmM-9" value="" style="edgeStyle=none;rounded=0;orthogonalLoop=1;jettySize=auto;html=1;fontSize=6;" edge="1" parent="1" source="rB3nnP-iTHuCGY8ewRmM-4" target="rB3nnP-iTHuCGY8ewRmM-31">
          <mxGeometry relative="1" as="geometry">
            <mxPoint x="334" y="-505.87" as="sourcePoint" />
            <mxPoint x="449" y="-479.87" as="targetPoint" />
          </mxGeometry>
        </mxCell>
        <mxCell id="rB3nnP-iTHuCGY8ewRmM-10" value="&lt;font style=&quot;font-size: 12px;&quot;&gt;&lt;b&gt;1&lt;/b&gt;&lt;/font&gt;" style="edgeLabel;html=1;align=center;verticalAlign=middle;resizable=0;points=[];fontSize=6;" vertex="1" connectable="0" parent="rB3nnP-iTHuCGY8ewRmM-9">
          <mxGeometry x="0.4" y="-1" relative="1" as="geometry">
            <mxPoint x="-9" y="-1" as="offset" />
          </mxGeometry>
        </mxCell>
        <mxCell id="rB3nnP-iTHuCGY8ewRmM-31" value="u_dbs_ds_pm_product_version" style="html=1;outlineConnect=0;whiteSpace=wrap;fillColor=#d5e8d4;shape=mxgraph.archimate3.businessObject;overflow=fill;strokeColor=#82b366;" vertex="1" parent="1">
          <mxGeometry x="400" y="-760" width="175" height="35.5" as="geometry" />
        </mxCell>
        <mxCell id="rB3nnP-iTHuCGY8ewRmM-57" value="dbs_ds_pm_product_utils.updateOldLiveVersion(current);" style="html=1;outlineConnect=0;whiteSpace=wrap;fillColor=#d5e8d4;shape=mxgraph.archimate3.application;appType=comp;archiType=square;strokeColor=#82b366;verticalAlign=middle;" vertex="1" parent="1">
          <mxGeometry x="660" y="-775" width="350" height="67" as="geometry" />
        </mxCell>
        <mxCell id="rB3nnP-iTHuCGY8ewRmM-58" value="dbs_ds_pm_ProductSync.setVersionLiveOnTargets(current);" style="html=1;outlineConnect=0;whiteSpace=wrap;fillColor=#d5e8d4;shape=mxgraph.archimate3.application;appType=comp;archiType=square;strokeColor=#82b366;verticalAlign=middle;" vertex="1" parent="1">
          <mxGeometry x="660" y="-510" width="350" height="67" as="geometry" />
        </mxCell>
        <mxCell id="rB3nnP-iTHuCGY8ewRmM-59" value="" style="html=1;endArrow=block;dashed=1;elbow=vertical;endFill=1;dashPattern=6 4;rounded=0;fontSize=12;" edge="1" parent="1" source="rB3nnP-iTHuCGY8ewRmM-31" target="rB3nnP-iTHuCGY8ewRmM-57">
          <mxGeometry width="160" relative="1" as="geometry">
            <mxPoint x="837" y="-180" as="sourcePoint" />
            <mxPoint x="1008" y="-180" as="targetPoint" />
          </mxGeometry>
        </mxCell>
        <mxCell id="rB3nnP-iTHuCGY8ewRmM-60" value="&lt;b&gt;2&lt;/b&gt;" style="edgeLabel;html=1;align=center;verticalAlign=middle;resizable=0;points=[];fontSize=12;" vertex="1" connectable="0" parent="rB3nnP-iTHuCGY8ewRmM-59">
          <mxGeometry x="0.0913" y="1" relative="1" as="geometry">
            <mxPoint as="offset" />
          </mxGeometry>
        </mxCell>
        <mxCell id="rB3nnP-iTHuCGY8ewRmM-61" value="" style="html=1;endArrow=block;dashed=1;elbow=vertical;endFill=1;dashPattern=6 4;rounded=0;fontSize=12;" edge="1" parent="1" source="rB3nnP-iTHuCGY8ewRmM-57" target="rB3nnP-iTHuCGY8ewRmM-58">
          <mxGeometry width="160" relative="1" as="geometry">
            <mxPoint x="847" y="-170" as="sourcePoint" />
            <mxPoint x="1018" y="-170" as="targetPoint" />
          </mxGeometry>
        </mxCell>
        <mxCell id="rB3nnP-iTHuCGY8ewRmM-62" value="&lt;b&gt;2&lt;/b&gt;" style="edgeLabel;html=1;align=center;verticalAlign=middle;resizable=0;points=[];fontSize=12;" vertex="1" connectable="0" parent="rB3nnP-iTHuCGY8ewRmM-61">
          <mxGeometry x="0.0913" y="1" relative="1" as="geometry">
            <mxPoint as="offset" />
          </mxGeometry>
        </mxCell>
        <mxCell id="rB3nnP-iTHuCGY8ewRmM-63" value="u_dbs_ds_pm_product_version&lt;br&gt;&lt;br&gt;grPV.setValue(&quot;u_version_type&quot;, &quot;archive&quot;);" style="html=1;outlineConnect=0;whiteSpace=wrap;fillColor=#d5e8d4;shape=mxgraph.archimate3.businessObject;overflow=fill;strokeColor=#82b366;" vertex="1" parent="1">
          <mxGeometry x="1090" y="-770" width="270" height="60" as="geometry" />
        </mxCell>
        <mxCell id="rB3nnP-iTHuCGY8ewRmM-64" value="" style="html=1;endArrow=block;dashed=1;elbow=vertical;endFill=1;dashPattern=6 4;rounded=0;fontSize=12;" edge="1" parent="1" source="rB3nnP-iTHuCGY8ewRmM-57" target="rB3nnP-iTHuCGY8ewRmM-63">
          <mxGeometry width="160" relative="1" as="geometry">
            <mxPoint x="585" y="-732" as="sourcePoint" />
            <mxPoint x="670" y="-732" as="targetPoint" />
          </mxGeometry>
        </mxCell>
        <mxCell id="rB3nnP-iTHuCGY8ewRmM-65" value="&lt;b&gt;3&lt;/b&gt;" style="edgeLabel;html=1;align=center;verticalAlign=middle;resizable=0;points=[];fontSize=12;" vertex="1" connectable="0" parent="rB3nnP-iTHuCGY8ewRmM-64">
          <mxGeometry x="0.0913" y="1" relative="1" as="geometry">
            <mxPoint as="offset" />
          </mxGeometry>
        </mxCell>
        <mxCell id="rB3nnP-iTHuCGY8ewRmM-66" value="dbs_ds_pm_product_utils .updateCatalogItemData: function(catItemGr, productVersionGr)" style="html=1;outlineConnect=0;whiteSpace=wrap;fillColor=#d5e8d4;shape=mxgraph.archimate3.application;appType=comp;archiType=square;strokeColor=#82b366;verticalAlign=middle;" vertex="1" parent="1">
          <mxGeometry x="1050" y="-650" width="350" height="67" as="geometry" />
        </mxCell>
        <mxCell id="rB3nnP-iTHuCGY8ewRmM-67" value="" style="html=1;endArrow=block;dashed=1;elbow=vertical;endFill=1;dashPattern=6 4;rounded=0;fontSize=12;" edge="1" parent="1" source="rB3nnP-iTHuCGY8ewRmM-63" target="rB3nnP-iTHuCGY8ewRmM-66">
          <mxGeometry width="160" relative="1" as="geometry">
            <mxPoint x="1020" y="-731" as="sourcePoint" />
            <mxPoint x="1100" y="-731" as="targetPoint" />
          </mxGeometry>
        </mxCell>
        <mxCell id="rB3nnP-iTHuCGY8ewRmM-68" value="&lt;b&gt;4&lt;/b&gt;" style="edgeLabel;html=1;align=center;verticalAlign=middle;resizable=0;points=[];fontSize=12;" vertex="1" connectable="0" parent="rB3nnP-iTHuCGY8ewRmM-67">
          <mxGeometry x="0.0913" y="1" relative="1" as="geometry">
            <mxPoint as="offset" />
          </mxGeometry>
        </mxCell>
      </root>
    </mxGraphModel>
  </diagram>
</mxfile>
